<svg xmlns="http://www.w3.org/2000/svg" viewBox="0 0 108 108">
  <rect width="108" height="108" rx="24" fill="#FFFFFF"/>
  <svg x="11" y="11" width="86" height="86" xmlns="http://www.w3.org/2000/svg" viewBox="0 -960 960 960" fill="#000000">
    <path d="M320-240q-33 0-56.5-23.5T240-320v-480q0-33 23.5-56.5T320-880h280l200 200v360q0 33-23.5 56.5T720-240H320Zm0-80h400v-320H560v-160H320v480Zm0 0v-480 480ZM160-80q-33 0-56.5-23.5T80-160v-560h80v560h480v80H160Zm324-280-56-56 44-44H320v-80h152l-44-44 56-56 140 140-140 140Z"/>
  </svg>
</svg>
